<svg xmlns="http://www.w3.org/2000/svg" width="36" height="36" viewBox="0 0 36 36">
  <path id="icon-zoom" d="M38,6H10a4,4,0,0,0-4,4V38a4,4,0,0,0,4,4H38a4,4,0,0,0,4-4V10A4,4,0,0,0,38,6ZM19,34a1,1,0,0,1,0,2H13a1,1,0,0,1-1-1V29a1,1,0,0,1,2,0v3.586l4.293-4.293a1,1,0,0,1,1.414,1.414L15.414,34Zm.707-15.707a1,1,0,1,1-1.414,1.414L14,15.414V19a1,1,0,0,1-2,0V13a1,1,0,0,1,1-1h6a1,1,0,0,1,0,2H15.414ZM36,35a1,1,0,0,1-1,1H29a1,1,0,0,1,0-2h3.586l-4.293-4.293a1,1,0,0,1,1.414-1.414L34,32.586V29a1,1,0,0,1,2,0Zm0-16a1,1,0,0,1-2,0V15.414l-4.293,4.293a1,1,0,0,1-1.414-1.414L32.586,14H29a1,1,0,0,1,0-2h6a1,1,0,0,1,1,1Z" transform="translate(-6 -6)" fill="#f9f9f9"/>
</svg>
